<?xml version="1.0" encoding="utf-8"?>
<!-- Generator: Adobe Illustrator 17.1.0, SVG Export Plug-In . SVG Version: 6.00 Build 0)  -->
<!DOCTYPE svg PUBLIC "-//W3C//DTD SVG 1.1//EN" "http://www.w3.org/Graphics/SVG/1.1/DTD/svg11.dtd">
<svg version="1.1" id="Livello_1" xmlns="http://www.w3.org/2000/svg" xmlns:xlink="http://www.w3.org/1999/xlink" x="0px" y="0px"
	 viewBox="0 0 225 35" enable-background="new 0 0 225 35" xml:space="preserve">
<g>
	<path fill="#241538" d="M21.7,26.7c-0.3,1.3-1.1,2.4-2.4,3.3c-1.7,1.2-3.9,1.8-6.5,1.8c-2.6,0-5-0.6-7-1.9c-1.3-0.8-2.2-2-2.7-3.5
		c-0.4-0.1-0.8-0.1-1.1-0.2c0.4,2,1.4,3.5,3,4.5c2.2,1.4,4.8,2.1,7.8,2.1c2.9,0,5.3-0.7,7.3-2.1c1.6-1.2,2.6-2.6,2.9-4.4
		C22.5,26.6,22.1,26.6,21.7,26.7z M19.8,4.3C18,2.8,15.6,2,12.6,2C9.7,2,7.3,2.7,5.4,4.1C3.7,5.4,2.8,7,2.6,9c0,0.2,0,0.4,0,0.6
		c0,2.3,0.8,4,2.4,5.1c1.6,1.2,4.1,2.3,7.5,3.3c3,1,5.3,2,6.8,2.9c0.6-0.1,1.2-0.2,1.7-0.3c-0.2-0.1-0.3-0.3-0.5-0.4
		c-1.7-1.2-4.2-2.3-7.6-3.4c-3.5-1-5.9-2.1-7.2-3.2c-1.3-1.1-1.9-2.5-1.9-4.2c0-0.1,0-0.1,0-0.2C3.8,7.7,4.6,6.3,6.1,5
		c1.6-1.3,3.8-1.9,6.5-1.9c2.6,0,4.8,0.7,6.4,2.2c1.7,1.5,2.5,3.3,2.5,5.6h1l0-0.1C22.5,8,21.7,5.9,19.8,4.3z"/>
	<path fill="#241538" d="M50.6,13.7c-0.4,0-0.8,0-1.1,0.1c0,0.5,0,0.9,0,1.4v4.6c0,3.7-0.9,6.7-2.6,8.9c-1.8,2.2-4.3,3.3-7.6,3.3
		c-3.3,0-5.8-1.1-7.6-3.3c-0.9-1.1-1.6-2.5-2-4c-0.3,0.1-0.7,0.3-1.1,0.4c0.5,1.7,1.3,3.2,2.3,4.4c2,2.4,4.8,3.6,8.3,3.6
		c3.5,0,6.3-1.2,8.3-3.6c2-2.4,3-5.6,3-9.7v-4.5C50.7,14.7,50.7,14.2,50.6,13.7z M47.6,5.6c-2-2.4-4.8-3.6-8.3-3.6
		C35.8,2,33,3.2,31,5.6c-1.9,2.3-2.9,5.3-3,9.1c0,0.2,0,0.3,0,0.5v3.5c0.5-0.2,0.8-0.4,1.1-0.6v-3.2c0.1-3.6,0.9-6.4,2.6-8.5
		c1.8-2.2,4.3-3.3,7.5-3.3c3.3,0,5.8,1.1,7.6,3.3c0.4,0.5,0.7,1,1,1.5c0.4,0,0.8-0.1,1.2-0.1C48.7,7,48.2,6.3,47.6,5.6z"/>
	<path fill="#241538" d="M76.5,24.6c-0.3,1.9-1.1,3.4-2.4,4.7c-1.7,1.7-3.9,2.6-6.6,2.6c-2.7,0-4.9-0.9-6.6-2.6
		c-1.7-1.7-2.6-4-2.6-6.9v-8.5c-0.4,0-0.7-0.1-1.1-0.1v8.6c0,3.3,1,5.9,2.9,7.8C62,32,64.5,33,67.5,33c3,0,5.5-0.9,7.4-2.8
		c1.4-1.3,2.3-3.1,2.7-5.2v0C77.2,24.9,76.9,24.7,76.5,24.6z M76.7,2.5v15.4c0.3,0.2,0.7,0.4,1.1,0.7V2.5H76.7z M57.2,2.5v5.3
		c0.4,0,0.8,0.1,1.1,0.1V2.5H57.2z"/>
	<path fill="#241538" d="M106.3,25.9v4.5l-0.1,0l-2.7-3.9c-0.4,0.1-0.8,0.1-1.2,0.2l4,5.9h1.1v-7C107.1,25.6,106.7,25.8,106.3,25.9z
		 M106.3,2.5v17.1c0.4-0.1,0.8-0.3,1.1-0.4V2.5H106.3z M99.5,20.7L86.9,2.5h-1.1v18.4c0.4,0.1,0.7,0.1,1.1,0.2V4.6l0.1,0l11.1,16.2
		l0.3,0.4c0.4,0,0.8-0.1,1.2-0.1L99.5,20.7z M85.8,26.9v5.7h1.1V27C86.5,27,86.1,26.9,85.8,26.9z"/>
	<path fill="#241538" d="M151.3,20.1c0-0.1-0.1-0.2-0.2-0.3l-0.1,0.3l-1.7,5.4l-1.3,4.9H148l-1.3-4.9l-1.4-5.1l-1.5-5.7
		c-0.4-0.1-0.9-0.2-1.3-0.3l1.6,6l3.3,12.1h1.3l3.4-11.4C151.7,20.8,151.5,20.5,151.3,20.1z M163,19.5l-5.2-17h-1.2l-3,9.7
		c0.3,0.2,0.7,0.5,0.9,0.8l1.6-5.4l1-3h0.1l1,3l3.6,12.1l0.1,0.3c0.4,0.1,0.9,0.2,1.3,0.3L163,19.5z M167.1,27l-0.9,3.4h-0.1l-1-3.7
		c-0.4-0.1-0.9-0.1-1.3-0.2l1.8,6h1.3l1.5-5.4C167.9,27.1,167.5,27,167.1,27z M173.8,2.5l-4.5,16.6l-0.5,2.1c0.4,0,0.8,0.1,1.2,0.1
		l0.6-2.3L175,2.5H173.8z M140.4,2.5h-1.2l1.5,5.6c0.4,0.1,0.9,0.1,1.3,0.2L140.4,2.5z"/>
	<path fill="#241538" d="M198.1,3.6V2.5h-17.7v18.5c0.4-0.1,0.8-0.1,1.1-0.2v-3.4h9.4v0c0,0,0,0,0-0.1c0,0,0,0,0,0
		c0-0.1,0-0.3,0-0.4c0-0.2,0-0.4,0.1-0.7h-9.5V3.6H198.1z M181.5,31.4v-4.6c-0.4,0-0.7,0.1-1.1,0.1v5.6h17.7v-1.1H181.5z"/>
	<path fill="#241538" d="M218.9,4.4c-1.7-1.3-4.1-1.9-7.3-1.9h-7.9v6.1c0.4-0.1,0.7-0.1,1.1-0.2V3.6h6.8c2.9,0,5,0.6,6.5,1.6
		c0.9,0.7,1.6,1.6,1.9,2.8c0.4,0,0.8,0.1,1.2,0.1C220.9,6.5,220.1,5.3,218.9,4.4z M221.2,19.4c-1.2-1.4-2.7-2.2-4.5-2.5l0-0.1
		c1.5-0.4,2.7-1.2,3.5-2.4c0.1-0.1,0.2-0.3,0.3-0.4c-0.4-0.1-0.8-0.1-1.2-0.1c-0.3,0.4-0.6,0.7-0.9,1c-1.3,1.1-3.3,1.6-5.9,1.7h-7.6
		v-2.1c-0.4,0.1-0.8,0.2-1.1,0.2v17.9h10c2.8,0,5.1-0.7,6.8-2.2c1.7-1.4,2.6-3.5,2.6-6.1C223,22.4,222.4,20.8,221.2,19.4z
		 M219.7,29.6c-1.5,1.3-3.5,1.9-6,1.9h-8.9V17.7h8.9c2.5,0,4.5,0.6,6,1.8c1.5,1.2,2.2,2.8,2.2,4.8C221.9,26.5,221.2,28.3,219.7,29.6
		z"/>
	<g>
		<path fill="#582A72" d="M137.1,15.3l-19-13.8c-0.5-0.3-1-0.5-1.6-0.5c-1.5,0-2.7,1.2-2.7,2.7v27.7c0,1.5,1.2,2.7,2.7,2.7
			c0.6,0,1.1-0.2,1.6-0.5l17.5-12.8l1.4-1c0.7-0.5,1.1-1.3,1.1-2.2C138.2,16.6,137.8,15.8,137.1,15.3z M116.9,30.7V4.3l18.1,13.1
			l-4.5,3.3L116.9,30.7z"/>
	</g>
	<g>
		<g opacity="0.5">
			<g>
				<path fill="#FFFFFF" d="M30,17.3C30,17.3,30,17.4,30,17.3C30,17.4,30,17.4,30,17.3C30,17.3,30,17.3,30,17.3z"/>
			</g>
			<g>
				<path fill="#FFFFFF" d="M30,17.3C30,17.3,30,17.3,30,17.3C30,17.3,30,17.4,30,17.3C30,17.4,30,17.4,30,17.3z"/>
			</g>
			<g>
				<path fill="#FFFFFF" d="M110.4,17.3C110.4,17.3,110.4,17.4,110.4,17.3C110.4,17.4,110.4,17.4,110.4,17.3
					C110.4,17.3,110.4,17.3,110.4,17.3z"/>
			</g>
			<g>
				<path fill="#FFFFFF" d="M110.4,17.3C110.4,17.3,110.4,17.4,110.4,17.3C110.4,17.4,110.4,17.4,110.4,17.3
					C110.4,17.3,110.4,17.3,110.4,17.3z"/>
			</g>
			<g>
				<path fill="#FFFFFF" d="M190.9,17.3C190.9,17.3,190.9,17.4,190.9,17.3L190.9,17.3c0,0.1,0,0.1,0,0.2L190.9,17.3L190.9,17.3
					C190.8,17.4,190.9,17.4,190.9,17.3C190.9,17.4,190.9,17.4,190.9,17.3C190.9,17.3,190.9,17.3,190.9,17.3z"/>
			</g>
			<g>
				<path fill="#FFFFFF" d="M190.9,17.4C190.9,17.4,190.9,17.4,190.9,17.4L190.9,17.4C190.9,17.4,190.9,17.5,190.9,17.4L190.9,17.4z
					"/>
				<path fill="#FFFFFF" d="M190.9,17.3C190.9,17.3,190.9,17.3,190.9,17.3C190.9,17.3,190.9,17.4,190.9,17.3
					C190.9,17.4,190.9,17.4,190.9,17.3C190.9,17.4,190.9,17.4,190.9,17.3z"/>
			</g>
		</g>
		<linearGradient id="SVGID_1_" gradientUnits="userSpaceOnUse" x1="12.5614" y1="20.795" x2="12.5614" y2="1.3496">
			<stop  offset="0" style="stop-color:#FFFFFF;stop-opacity:0"/>
			<stop  offset="1" style="stop-color:#FFFFFF"/>
		</linearGradient>
		<path opacity="0.5" fill="url(#SVGID_1_)" d="M22.5,10.8l0,0.1h-1c0-2.3-0.8-4.1-2.5-5.6c-1.7-1.5-3.8-2.2-6.4-2.2
			C9.9,3.1,7.7,3.8,6.1,5C4.6,6.3,3.8,7.7,3.7,9.3C3.4,9.2,3,9.1,2.6,9c0.2-2,1.1-3.6,2.8-4.9C7.3,2.7,9.7,2,12.6,2
			c3,0,5.4,0.8,7.3,2.3C21.7,5.9,22.5,8,22.5,10.8z"/>
		<linearGradient id="SVGID_2_" gradientUnits="userSpaceOnUse" x1="38.535" y1="20.795" x2="38.535" y2="1.3496">
			<stop  offset="0" style="stop-color:#FFFFFF;stop-opacity:0"/>
			<stop  offset="1" style="stop-color:#FFFFFF"/>
		</linearGradient>
		<path opacity="0.5" fill="url(#SVGID_2_)" d="M47.6,5.6c0.6,0.7,1,1.4,1.5,2.2c-0.4,0-0.8,0.1-1.2,0.1c-0.3-0.5-0.6-1-1-1.5
			c-1.8-2.2-4.3-3.3-7.6-3.3c-3.3,0-5.8,1.1-7.5,3.3c-1.7,2.1-2.6,5-2.6,8.5c-0.4-0.1-0.8-0.1-1.1-0.2c0.1-3.8,1.1-6.9,3-9.1
			C33,3.2,35.8,2,39.3,2C42.8,2,45.6,3.2,47.6,5.6z"/>
		<linearGradient id="SVGID_3_" gradientUnits="userSpaceOnUse" x1="50.085" y1="20.795" x2="50.085" y2="1.3496">
			<stop  offset="0" style="stop-color:#FFFFFF;stop-opacity:0"/>
			<stop  offset="1" style="stop-color:#FFFFFF"/>
		</linearGradient>
		<path opacity="0.5" fill="url(#SVGID_3_)" d="M50.6,13.7c0,0.5,0.1,1,0.1,1.5v2.5c-0.4,0-0.8-0.1-1.1-0.1v-2.4c0-0.5,0-1,0-1.4
			C49.9,13.8,50.2,13.7,50.6,13.7z"/>
		<linearGradient id="SVGID_4_" gradientUnits="userSpaceOnUse" x1="57.8" y1="20.795" x2="57.8" y2="1.3496">
			<stop  offset="0" style="stop-color:#FFFFFF;stop-opacity:0"/>
			<stop  offset="1" style="stop-color:#FFFFFF"/>
		</linearGradient>
		<path opacity="0.5" fill="url(#SVGID_4_)" d="M57.2,2.5h1.1v5.4c-0.4,0-0.8-0.1-1.1-0.1V2.5z"/>
		<linearGradient id="SVGID_5_" gradientUnits="userSpaceOnUse" x1="57.8" y1="20.795" x2="57.8" y2="1.3496">
			<stop  offset="0" style="stop-color:#FFFFFF;stop-opacity:0"/>
			<stop  offset="1" style="stop-color:#FFFFFF"/>
		</linearGradient>
		<path opacity="0.5" fill="url(#SVGID_5_)" d="M57.2,13.8c0.4,0,0.8,0.1,1.1,0.1v4.5c-0.4,0-0.8-0.1-1.1-0.1V13.8z"/>
		<linearGradient id="SVGID_6_" gradientUnits="userSpaceOnUse" x1="77.25" y1="20.795" x2="77.25" y2="1.3496">
			<stop  offset="0" style="stop-color:#FFFFFF;stop-opacity:0"/>
			<stop  offset="1" style="stop-color:#FFFFFF"/>
		</linearGradient>
		<path opacity="0.5" fill="url(#SVGID_6_)" d="M76.7,2.5h1.1v16.1c-0.5-0.2-0.8-0.5-1.1-0.7V2.5z"/>
		<linearGradient id="SVGID_7_" gradientUnits="userSpaceOnUse" x1="92.64" y1="20.795" x2="92.64" y2="1.3496">
			<stop  offset="0" style="stop-color:#FFFFFF;stop-opacity:0"/>
			<stop  offset="1" style="stop-color:#FFFFFF"/>
		</linearGradient>
		<path opacity="0.5" fill="url(#SVGID_7_)" d="M99.5,20.7c-0.5,0-0.9,0-1.3,0L87,4.5l-0.1,0v15.7c-0.4,0-0.8,0-1.1,0V2.5h1.1
			L99.5,20.7z"/>
		<linearGradient id="SVGID_8_" gradientUnits="userSpaceOnUse" x1="106.89" y1="20.795" x2="106.89" y2="1.3496">
			<stop  offset="0" style="stop-color:#FFFFFF;stop-opacity:0"/>
			<stop  offset="1" style="stop-color:#FFFFFF"/>
		</linearGradient>
		<path opacity="0.5" fill="url(#SVGID_8_)" d="M106.3,2.5h1.1v16.7c-0.3,0.1-0.7,0.3-1.1,0.4V2.5z"/>
		<linearGradient id="SVGID_9_" gradientUnits="userSpaceOnUse" x1="110.4213" y1="20.795" x2="110.4213" y2="1.3496">
			<stop  offset="0" style="stop-color:#FFFFFF;stop-opacity:0"/>
			<stop  offset="1" style="stop-color:#FFFFFF"/>
		</linearGradient>
		<path opacity="0.5" fill="url(#SVGID_9_)" d="M110.4,17.3C110.4,17.3,110.4,17.3,110.4,17.3C110.4,17.3,110.4,17.4,110.4,17.3
			C110.4,17.4,110.4,17.4,110.4,17.3z"/>
		<linearGradient id="SVGID_10_" gradientUnits="userSpaceOnUse" x1="126.005" y1="20.795" x2="126.005" y2="1.3496">
			<stop  offset="0" style="stop-color:#FFFFFF;stop-opacity:0"/>
			<stop  offset="1" style="stop-color:#FFFFFF"/>
		</linearGradient>
		<path opacity="0.5" fill="url(#SVGID_10_)" d="M138.2,17.5c0,0.9-0.4,1.7-1.1,2.2l-1.4,1c-1.7,0-3.5,0.1-5.2,0.1l4.5-3.3
			L116.9,4.3v16.6c-1,0-2,0-3,0V3.7c0-1.5,1.2-2.7,2.7-2.7c0.6,0,1.1,0.2,1.6,0.5l19,13.8C137.8,15.8,138.2,16.6,138.2,17.5z"/>
		<linearGradient id="SVGID_11_" gradientUnits="userSpaceOnUse" x1="140.565" y1="20.795" x2="140.565" y2="1.3496">
			<stop  offset="0" style="stop-color:#FFFFFF;stop-opacity:0"/>
			<stop  offset="1" style="stop-color:#FFFFFF"/>
		</linearGradient>
		<path opacity="0.5" fill="url(#SVGID_11_)" d="M140.4,2.5l1.6,5.8c-0.4-0.1-0.9-0.1-1.3-0.2l-1.5-5.6H140.4z"/>
		<linearGradient id="SVGID_12_" gradientUnits="userSpaceOnUse" x1="143.825" y1="20.795" x2="143.825" y2="1.3496">
			<stop  offset="0" style="stop-color:#FFFFFF;stop-opacity:0"/>
			<stop  offset="1" style="stop-color:#FFFFFF"/>
		</linearGradient>
		<path opacity="0.5" fill="url(#SVGID_12_)" d="M143.7,14.7l1.5,5.7c-0.4,0-0.8,0-1.2,0l-1.6-6C142.9,14.5,143.3,14.6,143.7,14.7z"
			/>
		<linearGradient id="SVGID_13_" gradientUnits="userSpaceOnUse" x1="151.155" y1="20.795" x2="151.155" y2="1.3496">
			<stop  offset="0" style="stop-color:#FFFFFF;stop-opacity:0"/>
			<stop  offset="1" style="stop-color:#FFFFFF"/>
		</linearGradient>
		<path opacity="0.5" fill="url(#SVGID_13_)" d="M151.1,19.8c0,0.1,0.1,0.2,0.2,0.3c-0.1,0-0.2,0-0.3,0L151.1,19.8z"/>
		<linearGradient id="SVGID_14_" gradientUnits="userSpaceOnUse" x1="158.225" y1="20.795" x2="158.225" y2="1.3496">
			<stop  offset="0" style="stop-color:#FFFFFF;stop-opacity:0"/>
			<stop  offset="1" style="stop-color:#FFFFFF"/>
		</linearGradient>
		<path opacity="0.5" fill="url(#SVGID_14_)" d="M157.7,2.5l5.2,17c-0.4,0-0.8,0.1-1.2,0.1l-3.6-12.1l-1-3H157l-1,3l-1.6,5.4
			c-0.3-0.3-0.6-0.5-0.9-0.8l3-9.7H157.7z"/>
		<linearGradient id="SVGID_15_" gradientUnits="userSpaceOnUse" x1="172.125" y1="20.795" x2="172.125" y2="1.3496">
			<stop  offset="0" style="stop-color:#FFFFFF;stop-opacity:0"/>
			<stop  offset="1" style="stop-color:#FFFFFF"/>
		</linearGradient>
		<path opacity="0.5" fill="url(#SVGID_15_)" d="M173.8,2.5h1.2L170.5,19c-0.4,0-0.8,0.1-1.2,0.1L173.8,2.5z"/>
		<linearGradient id="SVGID_16_" gradientUnits="userSpaceOnUse" x1="189.23" y1="20.795" x2="189.23" y2="1.3496">
			<stop  offset="0" style="stop-color:#FFFFFF;stop-opacity:0"/>
			<stop  offset="1" style="stop-color:#FFFFFF"/>
		</linearGradient>
		<path opacity="0.5" fill="url(#SVGID_16_)" d="M180.4,2.5h17.7v1.1h-16.6v12.7h9.5c-0.1,0.2-0.1,0.4-0.1,0.7
			c-1.3,0.2-2.5,0.3-3.8,0.4c-1.8,0.2-3.7,0.4-5.6,0.6c-0.4,0-0.8,0.1-1.1,0.1V2.5z"/>
		<linearGradient id="SVGID_17_" gradientUnits="userSpaceOnUse" x1="204.275" y1="20.795" x2="204.275" y2="1.3496">
			<stop  offset="0" style="stop-color:#FFFFFF;stop-opacity:0"/>
			<stop  offset="1" style="stop-color:#FFFFFF"/>
		</linearGradient>
		<path opacity="0.5" fill="url(#SVGID_17_)" d="M203.7,14.7c0.3-0.1,0.7-0.2,1.1-0.2v0.6c-0.4,0.1-0.7,0.1-1.1,0.2V14.7z"/>
		<linearGradient id="SVGID_18_" gradientUnits="userSpaceOnUse" x1="212.49" y1="20.795" x2="212.49" y2="1.3496">
			<stop  offset="0" style="stop-color:#FFFFFF;stop-opacity:0"/>
			<stop  offset="1" style="stop-color:#FFFFFF"/>
		</linearGradient>
		<path opacity="0.5" fill="url(#SVGID_18_)" d="M221.3,8.1C220.9,8,220.5,8,220,8c-0.3-1.1-1-2-1.9-2.8c-1.5-1.1-3.6-1.6-6.5-1.6
			h-6.8v4.8c-0.4,0-0.7,0.1-1.1,0.2V2.5h7.9c3.1,0,5.5,0.6,7.3,1.9C220.1,5.3,220.9,6.5,221.3,8.1z"/>
	</g>
</g>
</svg>
