<?xml version="1.0" encoding="utf-8"?>
<!-- Generator: Adobe Illustrator 17.1.0, SVG Export Plug-In . SVG Version: 6.00 Build 0)  -->
<!DOCTYPE svg PUBLIC "-//W3C//DTD SVG 1.1//EN" "http://www.w3.org/Graphics/SVG/1.1/DTD/svg11.dtd">
<svg version="1.1" id="Livello_1" xmlns="http://www.w3.org/2000/svg" xmlns:xlink="http://www.w3.org/1999/xlink" x="0px" y="0px"
	 viewBox="0 0 225 35" enable-background="new 0 0 225 35" xml:space="preserve">
<g>
	<path fill="#FFFFFF" d="M21.7,26.7c-0.3,1.3-1.1,2.4-2.4,3.3c-1.7,1.2-3.9,1.8-6.5,1.8c-2.6,0-5-0.6-7-1.9c-1.3-0.8-2.2-2-2.7-3.5
		c-0.4-0.1-0.8-0.1-1.1-0.2c0.4,2,1.4,3.5,3,4.5c2.2,1.4,4.8,2.1,7.8,2.1c2.9,0,5.3-0.7,7.3-2.1c1.6-1.2,2.6-2.6,2.9-4.4
		C22.5,26.6,22.1,26.6,21.7,26.7z M19.8,4.3C18,2.8,15.6,2,12.6,2C9.7,2,7.3,2.7,5.4,4.1C3.7,5.4,2.8,7,2.6,9c0,0.2,0,0.4,0,0.6
		c0,2.3,0.8,4,2.4,5.1c1.6,1.2,4.1,2.3,7.5,3.3c3,1,5.3,2,6.8,2.9c0.6-0.1,1.2-0.2,1.7-0.3c-0.2-0.1-0.3-0.3-0.5-0.4
		c-1.7-1.2-4.2-2.3-7.6-3.4c-3.5-1-5.9-2.1-7.2-3.2c-1.3-1.1-1.9-2.5-1.9-4.2c0-0.1,0-0.1,0-0.2C3.8,7.7,4.6,6.3,6.1,5
		c1.6-1.3,3.8-1.9,6.5-1.9c2.6,0,4.8,0.7,6.4,2.2c1.7,1.5,2.5,3.3,2.5,5.6h1l0-0.1C22.5,8,21.7,5.9,19.8,4.3z"/>
	<path fill="#FFFFFF" d="M50.6,13.7c-0.4,0-0.8,0-1.1,0.1c0,0.5,0,0.9,0,1.4v4.6c0,3.7-0.9,6.7-2.6,8.9c-1.8,2.2-4.3,3.3-7.6,3.3
		c-3.3,0-5.8-1.1-7.6-3.3c-0.9-1.1-1.6-2.5-2-4c-0.3,0.1-0.7,0.3-1.1,0.4c0.5,1.7,1.3,3.2,2.3,4.4c2,2.4,4.8,3.6,8.3,3.6
		c3.5,0,6.3-1.2,8.3-3.6c2-2.4,3-5.6,3-9.7v-4.5C50.7,14.7,50.7,14.2,50.6,13.7z M47.6,5.6c-2-2.4-4.8-3.6-8.3-3.6
		C35.8,2,33,3.2,31,5.6c-1.9,2.3-2.9,5.3-3,9.1c0,0.2,0,0.3,0,0.5v3.5c0.5-0.2,0.8-0.4,1.1-0.6v-3.2c0.1-3.6,0.9-6.4,2.6-8.5
		c1.8-2.2,4.3-3.3,7.5-3.3c3.3,0,5.8,1.1,7.6,3.3c0.4,0.5,0.7,1,1,1.5c0.4,0,0.8-0.1,1.2-0.1C48.7,7,48.2,6.3,47.6,5.6z"/>
	<path fill="#FFFFFF" d="M76.5,24.6c-0.3,1.9-1.1,3.4-2.4,4.7c-1.7,1.7-3.9,2.6-6.6,2.6c-2.7,0-4.9-0.9-6.6-2.6
		c-1.7-1.7-2.6-4-2.6-6.9v-8.5c-0.4,0-0.7-0.1-1.1-0.1v8.6c0,3.3,1,5.9,2.9,7.8C62,32,64.5,33,67.5,33c3,0,5.5-0.9,7.4-2.8
		c1.4-1.3,2.3-3.1,2.7-5.2v0C77.2,24.9,76.9,24.7,76.5,24.6z M76.7,2.5v15.4c0.3,0.2,0.7,0.4,1.1,0.7V2.5H76.7z M57.2,2.5v5.3
		c0.4,0,0.8,0.1,1.1,0.1V2.5H57.2z"/>
	<path fill="#FFFFFF" d="M106.3,25.9v4.5l-0.1,0l-2.7-3.9c-0.4,0.1-0.8,0.1-1.2,0.2l4,5.9h1.1v-7C107.1,25.6,106.7,25.8,106.3,25.9z
		 M106.3,2.5v17.1c0.4-0.1,0.8-0.3,1.1-0.4V2.5H106.3z M99.5,20.7L86.9,2.5h-1.1v18.4c0.4,0.1,0.7,0.1,1.1,0.2V4.6l0.1,0l11.1,16.2
		l0.3,0.4c0.4,0,0.8-0.1,1.2-0.1L99.5,20.7z M85.8,26.9v5.7h1.1V27C86.5,27,86.1,26.9,85.8,26.9z"/>
	<path fill="#FFFFFF" d="M151.3,20.1c0-0.1-0.1-0.2-0.2-0.3l-0.1,0.3l-1.7,5.4l-1.3,4.9H148l-1.3-4.9l-1.4-5.1l-1.5-5.7
		c-0.4-0.1-0.9-0.2-1.3-0.3l1.6,6l3.3,12.1h1.3l3.4-11.4C151.7,20.8,151.5,20.5,151.3,20.1z M163,19.5l-5.2-17h-1.2l-3,9.7
		c0.3,0.2,0.7,0.5,0.9,0.8l1.6-5.4l1-3h0.1l1,3l3.6,12.1l0.1,0.3c0.4,0.1,0.9,0.2,1.3,0.3L163,19.5z M167.1,27l-0.9,3.4h-0.1l-1-3.7
		c-0.4-0.1-0.9-0.1-1.3-0.2l1.8,6h1.3l1.5-5.4C167.9,27.1,167.5,27,167.1,27z M173.8,2.5l-4.5,16.6l-0.5,2.1c0.4,0,0.8,0.1,1.2,0.1
		l0.6-2.3L175,2.5H173.8z M140.4,2.5h-1.2l1.5,5.6c0.4,0.1,0.9,0.1,1.3,0.2L140.4,2.5z"/>
	<path fill="#FFFFFF" d="M198.1,3.6V2.5h-17.7v18.5c0.4-0.1,0.8-0.1,1.1-0.2v-3.4h9.4v0c0,0,0,0,0-0.1c0,0,0,0,0,0
		c0-0.1,0-0.3,0-0.4c0-0.2,0-0.4,0.1-0.7h-9.5V3.6H198.1z M181.5,31.4v-4.6c-0.4,0-0.7,0.1-1.1,0.1v5.6h17.7v-1.1H181.5z"/>
	<path fill="#FFFFFF" d="M218.9,4.4c-1.7-1.3-4.1-1.9-7.3-1.9h-7.9v6.1c0.4-0.1,0.7-0.1,1.1-0.2V3.6h6.8c2.9,0,5,0.6,6.5,1.6
		c0.9,0.7,1.6,1.6,1.9,2.8c0.4,0,0.8,0.1,1.2,0.1C220.9,6.5,220.1,5.3,218.9,4.4z M221.2,19.4c-1.2-1.4-2.7-2.2-4.5-2.5l0-0.1
		c1.5-0.4,2.7-1.2,3.5-2.4c0.1-0.1,0.2-0.3,0.3-0.4c-0.4-0.1-0.8-0.1-1.2-0.1c-0.3,0.4-0.6,0.7-0.9,1c-1.3,1.1-3.3,1.6-5.9,1.7h-7.6
		v-2.1c-0.4,0.1-0.8,0.2-1.1,0.2v17.9h10c2.8,0,5.1-0.7,6.8-2.2c1.7-1.4,2.6-3.5,2.6-6.1C223,22.4,222.4,20.8,221.2,19.4z
		 M219.7,29.6c-1.5,1.3-3.5,1.9-6,1.9h-8.9V17.7h8.9c2.5,0,4.5,0.6,6,1.8c1.5,1.2,2.2,2.8,2.2,4.8C221.9,26.5,221.2,28.3,219.7,29.6
		z"/>
	<g>
		<path fill="#FFFFFF" d="M137.1,15.3l-19-13.8c-0.5-0.3-1-0.5-1.6-0.5c-1.5,0-2.7,1.2-2.7,2.7v27.7c0,1.5,1.2,2.7,2.7,2.7
			c0.6,0,1.1-0.2,1.6-0.5l17.5-12.8l1.4-1c0.7-0.5,1.1-1.3,1.1-2.2C138.2,16.6,137.8,15.8,137.1,15.3z M116.9,30.7V4.3l18.1,13.1
			l-4.5,3.3L116.9,30.7z"/>
	</g>
</g>
</svg>
